<svg xmlns="http://www.w3.org/2000/svg" xmlns:xlink="http://www.w3.org/1999/xlink" width="55.751" height="55.751" viewBox="0 0 55.751 55.751">
  <defs>
    <clipPath id="clip-path">
      <path id="Path_13" data-name="Path 13" d="M76.212-398.8H73.134l8.394,23.727,4.7-13.428-3.643-10.3H79.335v-2.261H93.719v2.261H90.351l8.393,23.727,3.017-8.622c3.958-11.047-3.244-14.487-3.244-16.953a4.464,4.464,0,0,1,4.464-4.464c.133,0,.263.007.39.019a23.243,23.243,0,0,0-16.007-6.361,23.3,23.3,0,0,0-19.413,10.393h8.261v2.261Z" transform="translate(-67.951 411.452)" fill="#32373c"/>
    </clipPath>
    <clipPath id="clip-path-2">
      <path id="Path_15" data-name="Path 15" d="M36.548-288.475A23.319,23.319,0,0,0,48.937-267.87L38.411-297.624A23.247,23.247,0,0,0,36.548-288.475Z" transform="translate(-36.548 297.624)" fill="#32373c"/>
    </clipPath>
    <clipPath id="clip-path-3">
      <path id="Path_17" data-name="Path 17" d="M321.2-316.453a16.485,16.485,0,0,1-.279,6.389h.093l-.353,1.008h0a21.757,21.757,0,0,1-.771,2.2l-8.026,22.484a23.319,23.319,0,0,0,12.361-20.59A23.216,23.216,0,0,0,321.2-316.453Z" transform="translate(-311.868 316.453)" fill="#32373c"/>
    </clipPath>
    <clipPath id="clip-path-4">
      <path id="Path_19" data-name="Path 19" d="M166.075-180.838a23.3,23.3,0,0,0,7.193,1.132,23.315,23.315,0,0,0,6.879-1.032l-6.823-19.286Z" transform="translate(-166.075 200.023)" fill="#32373c"/>
    </clipPath>
    <clipPath id="clip-path-5">
      <path id="Path_21" data-name="Path 21" d="M47.587-439.835A27.693,27.693,0,0,0,27.876-448a27.693,27.693,0,0,0-19.711,8.165A27.692,27.692,0,0,0,0-420.124a27.693,27.693,0,0,0,8.165,19.711,27.693,27.693,0,0,0,19.711,8.165,27.693,27.693,0,0,0,19.711-8.165,27.693,27.693,0,0,0,8.165-19.711A27.693,27.693,0,0,0,47.587-439.835Zm-19.711,45.62A25.939,25.939,0,0,1,1.966-420.124a25.939,25.939,0,0,1,25.909-25.909,25.939,25.939,0,0,1,25.909,25.909A25.938,25.938,0,0,1,27.876-394.215Z" transform="translate(0 448)" fill="#32373c"/>
    </clipPath>
  </defs>
  <g id="Group_28" data-name="Group 28" transform="translate(0 0.479)">
    <g id="Group_23" data-name="Group 23" transform="translate(8.462 4.49)" clip-path="url(#clip-path)">
      <path id="Path_12" data-name="Path 12" d="M62.951-378.826H99.616v-37.626H62.951Z" transform="translate(-63.574 415.829)" fill="#32373c"/>
    </g>
    <g id="Group_24" data-name="Group 24" transform="translate(4.552 18.665)" clip-path="url(#clip-path-2)">
      <path id="Path_14" data-name="Path 14" d="M31.548-271.625H45.182v-31H31.548Z" transform="translate(-32.171 302.001)" fill="#32373c"/>
    </g>
    <g id="Group_25" data-name="Group 25" transform="translate(38.839 16.321)" clip-path="url(#clip-path-3)">
      <path id="Path_16" data-name="Path 16" d="M306.868-288.124h13.606v-33.329H306.868Z" transform="translate(-307.491 320.83)" fill="#32373c"/>
    </g>
    <g id="Group_26" data-name="Group 26" transform="translate(20.682 30.82)" clip-path="url(#clip-path-4)">
      <path id="Path_18" data-name="Path 18" d="M161.075-183.46h15.318v-21.563H161.075Z" transform="translate(-161.698 204.4)" fill="#32373c"/>
    </g>
    <g id="Group_27" data-name="Group 27" transform="translate(0 -0.479)" clip-path="url(#clip-path-5)">
      <path id="Path_20" data-name="Path 20" d="M-5-396H52v-57H-5Z" transform="translate(4.377 452.377)" fill="#32373c"/>
    </g>
  </g>
</svg>
