<svg id="Group_118" data-name="Group 118" xmlns="http://www.w3.org/2000/svg" xmlns:xlink="http://www.w3.org/1999/xlink" width="60.572" height="35.892" viewBox="0 0 60.572 35.892">
  <defs>
    <clipPath id="clip-path">
      <path id="Path_162" data-name="Path 162" d="M158.469-272.482H109.2a5.652,5.652,0,0,0-5.652,5.652v18.551a5.652,5.652,0,0,0,5.652,5.652h23.447l10.392,6.038-2.075-6.038h17.5a5.651,5.651,0,0,0,5.652-5.652V-266.83A5.651,5.651,0,0,0,158.469-272.482Z" transform="translate(-103.549 272.482)" fill="none"/>
    </clipPath>
    <clipPath id="clip-path-2">
      <path id="Path_164" data-name="Path 164" d="M123.168-232.38h-.025a2.078,2.078,0,0,1-1.694-.909c-.6-.887-1.488-2.933-2.984-10.944-.8-4.294-1.4-8.337-1.411-8.378a2.078,2.078,0,0,1,1.751-2.361,2.079,2.079,0,0,1,2.362,1.75c.006.039.6,3.991,1.379,8.194.453,2.428.84,4.239,1.162,5.587,1.96-3.612,4.352-8.469,5.406-10.663a2.078,2.078,0,0,1,2.125-1.163,2.079,2.079,0,0,1,1.784,1.639,52.744,52.744,0,0,0,2.5,8.187c.467-4.424,1.372-10.039,3.1-13.573a2.079,2.079,0,0,1,2.779-.957,2.079,2.079,0,0,1,.957,2.779c-2.741,5.62-3.152,18.421-3.156,18.549a2.078,2.078,0,0,1-1.311,1.87,2.079,2.079,0,0,1-2.237-.462c-1.862-1.862-3.56-5.072-5.046-9.539q-.1-.29-.187-.573a103.1,103.1,0,0,1-5.562,10.1A2.08,2.08,0,0,1,123.168-232.38Z" transform="translate(-117.032 256.183)" fill="#fff"/>
    </clipPath>
    <clipPath id="clip-path-3">
      <path id="Path_166" data-name="Path 166" d="M256.868-239.611a6.624,6.624,0,0,0-4.295-3.514,6.385,6.385,0,0,0-6.421,2.191c-2.143,2.354-3.707,6.767-1.669,12.085,1.4,3.644,3.591,4.313,5.009,4.313.153,0,.3-.008.429-.021,3.775-.358,6.945-5.353,7.556-8.778A10.039,10.039,0,0,0,256.868-239.611Zm-3.483,5.545a9.389,9.389,0,0,1-1.708,3.607,4.213,4.213,0,0,1-2.147,1.762c-.259.025-.739-.53-1.164-1.64-.853-2.224-1.139-5.6.861-7.8a2.747,2.747,0,0,1,1.886-1.027,1.266,1.266,0,0,1,.346.046C253.685-238.5,253.735-236.03,253.385-234.065Z" transform="translate(-243.533 243.325)" fill="#fff"/>
    </clipPath>
    <clipPath id="clip-path-4">
      <path id="Path_168" data-name="Path 168" d="M334.783-239.611a6.649,6.649,0,0,0-1.743-2.214,6.983,6.983,0,0,0-2.553-1.3,6.388,6.388,0,0,0-6.421,2.191c-2.141,2.354-3.7,6.767-1.669,12.085,1.4,3.644,3.591,4.313,5.009,4.313.153,0,.3-.008.431-.021,3.773-.358,6.943-5.353,7.554-8.778A10.053,10.053,0,0,0,334.783-239.611Zm-3.485,5.545a9.38,9.38,0,0,1-1.706,3.607,4.223,4.223,0,0,1-2.149,1.762c-.257.025-.739-.53-1.164-1.64-.851-2.224-1.137-5.6.861-7.8a2.755,2.755,0,0,1,1.886-1.027,1.29,1.29,0,0,1,.348.046C331.6-238.5,331.648-236.03,331.3-234.065Z" transform="translate(-321.448 243.325)" fill="#fff"/>
    </clipPath>
  </defs>
  <g id="Group_112" data-name="Group 112" clip-path="url(#clip-path)">
    <path id="Path_161" data-name="Path 161" d="M98.549-239.609H161.1v-37.873H98.549Z" transform="translate(-99.54 276.491)" fill="#9b5a90"/>
  </g>
  <g id="Group_113" data-name="Group 113" transform="translate(2.672 3.23)" clip-path="url(#clip-path-2)">
    <path id="Path_163" data-name="Path 163" d="M112.032-235.4H139.55v-25.786H112.032Z" transform="translate(-113.022 260.192)" fill="#fff"/>
  </g>
  <g id="Group_114" data-name="Group 114" transform="translate(27.742 5.778)" clip-path="url(#clip-path-3)">
    <path id="Path_165" data-name="Path 165" d="M238.533-227.554h16.15v-20.771h-16.15Z" transform="translate(-239.524 247.334)" fill="#fff"/>
  </g>
  <g id="Group_115" data-name="Group 115" transform="translate(43.183 5.778)" clip-path="url(#clip-path-4)">
    <path id="Path_167" data-name="Path 167" d="M316.448-227.554H332.6v-20.771H316.448Z" transform="translate(-317.438 247.334)" fill="#fff"/>
  </g>
</svg>
