<svg xmlns="http://www.w3.org/2000/svg" width="16" height="16" viewBox="0 0 16 16">
  <path id="f110" d="M14.857-46.054,16-34.625H0L1.143-46.054H3.429V-46.2a4.263,4.263,0,0,1,1.3-3.125,4.263,4.263,0,0,1,3.125-1.3h.286a4.263,4.263,0,0,1,3.125,1.3,4.263,4.263,0,0,1,1.3,3.125v.143ZM4.571-46.2v.143h6.857V-46.2a3.165,3.165,0,0,0-.964-2.321,3.164,3.164,0,0,0-2.321-.964H7.857a3.165,3.165,0,0,0-2.321.964A3.165,3.165,0,0,0,4.571-46.2ZM1.286-35.768H14.714l-.893-9.143h-1.25v1.286a1.119,1.119,0,0,1,.571,1,1.112,1.112,0,0,1-.321.821,1.112,1.112,0,0,1-.821.321,1.112,1.112,0,0,1-.821-.321,1.112,1.112,0,0,1-.321-.821,1.119,1.119,0,0,1,.571-1v-1.286H4.571v1.286a1.119,1.119,0,0,1,.571,1,1.112,1.112,0,0,1-.321.821A1.112,1.112,0,0,1,4-41.482a1.112,1.112,0,0,1-.821-.321,1.112,1.112,0,0,1-.321-.821,1.119,1.119,0,0,1,.571-1v-1.286H2.179Zm0,0" transform="translate(0 50.625)" fill="#545454"/>
</svg>
