<svg xmlns="http://www.w3.org/2000/svg" width="20" height="12.5" viewBox="0 0 20 12.5">
  <path id="f316" d="M0-39.375H20v10H0Zm7.539,8.75a5.513,5.513,0,0,1-1.289-3.75,5.513,5.513,0,0,1,1.289-3.75H3.75a2.4,2.4,0,0,1-.742,1.758,2.4,2.4,0,0,1-1.758.742V-32.5a1.808,1.808,0,0,1,1.328.547,1.808,1.808,0,0,1,.547,1.328Zm4.1-2.3a.926.926,0,0,0,.156-.586,1.016,1.016,0,0,0-.039-.312.848.848,0,0,0-.156-.312,1.893,1.893,0,0,0-.273-.234,1.347,1.347,0,0,0-.391-.2,1.633,1.633,0,0,1-.273-.078.226.226,0,0,0-.156-.039h-.156V-35.9a.419.419,0,0,0,.137.078.448.448,0,0,0,.137.039.659.659,0,0,1,.273.508h.781a1.216,1.216,0,0,0-.156-.508.955.955,0,0,0-.352-.43,1.736,1.736,0,0,0-.547-.234.629.629,0,0,0-.273-.078v-.352h-.7v.352a.6.6,0,0,0-.234.078,1.427,1.427,0,0,0-.547.2,1.587,1.587,0,0,0-.352.391,1.259,1.259,0,0,0-.156.547A1.016,1.016,0,0,0,8.4-35a.406.406,0,0,0,.156.273,2.288,2.288,0,0,0,.313.273,1.2,1.2,0,0,0,.469.2.226.226,0,0,0,.156.039h.156v1.367a1.531,1.531,0,0,1-.352-.156.464.464,0,0,1-.234-.273,1.24,1.24,0,0,1-.078-.352H8.2a1.8,1.8,0,0,0,.156.625,2.015,2.015,0,0,0,.391.43,1.312,1.312,0,0,0,.586.273,1.279,1.279,0,0,0,.313.078v.352h.7v-.352A1.24,1.24,0,0,0,10.7-32.3a1.427,1.427,0,0,0,.547-.2A2.235,2.235,0,0,0,11.641-32.93Zm7.109.43v-3.125a2.4,2.4,0,0,1-1.758-.742,2.4,2.4,0,0,1-.742-1.758H12.461a5.513,5.513,0,0,1,1.289,3.75,5.513,5.513,0,0,1-1.289,3.75h4.414a1.808,1.808,0,0,1,.547-1.328A1.808,1.808,0,0,1,18.75-32.5ZM2.5-34.375a1.1,1.1,0,0,1,1.25-1.25A1.1,1.1,0,0,1,5-34.375a1.1,1.1,0,0,1-1.25,1.25A1.1,1.1,0,0,1,2.5-34.375Zm12.5,0a1.1,1.1,0,0,1,1.25-1.25,1.1,1.1,0,0,1,1.25,1.25,1.1,1.1,0,0,1-1.25,1.25A1.1,1.1,0,0,1,15-34.375Zm-4.336.43a.909.909,0,0,1,.234.156.477.477,0,0,1,.117.352.544.544,0,0,1-.039.234.423.423,0,0,1-.156.2l-.312.156-.039.039h-.117v-1.211a1.2,1.2,0,0,1,.156.02A.3.3,0,0,1,10.664-33.945ZM9.219-35.664a.423.423,0,0,1,.2-.156.6.6,0,0,1,.234-.078v1.016a.681.681,0,0,1-.352-.2.45.45,0,0,1-.156-.312A.629.629,0,0,1,9.219-35.664ZM0-26.875v-1.25H20v1.25Zm0,0" transform="translate(0 39.375)" fill="#545454"/>
</svg>
