<svg xmlns="http://www.w3.org/2000/svg" width="19" height="17.813" viewBox="0 0 19 17.813">
  <path id="f407" d="M6.828-33.956l2.333,2.29V-41.93h.679v10.263l2.333-2.29.509.509L9.5-30.352l-3.138-3.1Zm8.737-9.2A3.282,3.282,0,0,1,18-42.142a3.388,3.388,0,0,1,1,2.46,3.351,3.351,0,0,1-1.018,2.46,3.351,3.351,0,0,1-2.46,1.018H11.239v-.679h4.283a2.672,2.672,0,0,0,1.993-.827,2.728,2.728,0,0,0,.806-1.972,2.763,2.763,0,0,0-.827-1.993,2.659,2.659,0,0,0-1.972-.848h-.636v-.848A3.875,3.875,0,0,0,13.635-46.3,4.244,4.244,0,0,0,10.6-47.485a4.191,4.191,0,0,0-2.227.636,4.2,4.2,0,0,0-1.59,1.739l-.254.594-.594-.3a1.882,1.882,0,0,0-.848-.212,1.736,1.736,0,0,0-1.209.488,2.071,2.071,0,0,0-.657,1.166l-.042.382-.382.127a3.189,3.189,0,0,0-1.548,1.1,2.823,2.823,0,0,0-.573,1.739,3.05,3.05,0,0,0,.912,2.205,2.994,2.994,0,0,0,2.227.933H7.676v.679H3.817a3.709,3.709,0,0,1-2.693-1.1A3.6,3.6,0,0,1,0-39.979a3.527,3.527,0,0,1,.721-2.184A3.786,3.786,0,0,1,2.587-43.5a2.7,2.7,0,0,1,.869-1.527,2.351,2.351,0,0,1,1.633-.636,2.431,2.431,0,0,1,1.1.254,4.6,4.6,0,0,1,1.8-2.015,4.969,4.969,0,0,1,2.651-.742,4.846,4.846,0,0,1,3.5,1.421,4.637,4.637,0,0,1,1.463,3.456v.042Zm0,0" transform="translate(0 48.164)"/>
</svg>
