<svg xmlns="http://www.w3.org/2000/svg" width="12.857" height="18" viewBox="0 0 12.857 18">
  <path id="f3a3" d="M6.429-50.625a6.258,6.258,0,0,1,4.54,1.848,6.013,6.013,0,0,1,1.888,4.46,10.917,10.917,0,0,1-1.607,5.022,28.884,28.884,0,0,1-3.214,4.821L6.429-32.625q-.281-.281-.7-.783T4.2-35.357Q3.094-36.8,2.25-38.17A20.814,20.814,0,0,1,.7-41.263,8.263,8.263,0,0,1,0-44.317a6.013,6.013,0,0,1,1.888-4.46A6.258,6.258,0,0,1,6.429-50.625Zm0,8.558a2.212,2.212,0,0,0,1.627-.663,2.165,2.165,0,0,0,.663-1.587A2.165,2.165,0,0,0,8.056-45.9a2.212,2.212,0,0,0-1.627-.663A2.212,2.212,0,0,0,4.8-45.9a2.165,2.165,0,0,0-.663,1.587A2.165,2.165,0,0,0,4.8-42.73,2.212,2.212,0,0,0,6.429-42.067Zm0,0" transform="translate(0 50.625)" fill="#545454"/>
</svg>
