<svg xmlns="http://www.w3.org/2000/svg" width="26" height="18.861" viewBox="0 0 26 18.861">
  <path id="_002-shipping-and-delivery" data-name="002-shipping-and-delivery" d="M25.777,7.158,21.7,3.079a.761.761,0,0,0-.539-.223H17.841V2.8A2.8,2.8,0,0,0,15.04,0H2.8A2.8,2.8,0,0,0,0,2.8V13a2.8,2.8,0,0,0,2.8,2.8H3.34a3.821,3.821,0,0,0,7.49,0H15.17a3.822,3.822,0,0,0,7.49,0h2.578A.762.762,0,0,0,26,15.04V7.7A.761.761,0,0,0,25.777,7.158ZM20.843,4.379,23.4,6.935H17.841V4.379ZM1.523,13V2.8A1.279,1.279,0,0,1,2.8,1.523H15.04A1.279,1.279,0,0,1,16.318,2.8V12.24a3.82,3.82,0,0,0-1.147,2.037H10.83a3.822,3.822,0,0,0-7.49,0H2.8A1.279,1.279,0,0,1,1.523,13Zm5.561,4.338a2.3,2.3,0,1,1,2.3-2.3A2.3,2.3,0,0,1,7.085,17.338Zm11.83,0a2.3,2.3,0,1,1,2.3-2.3A2.3,2.3,0,0,1,18.915,17.338Zm3.745-3.06a3.819,3.819,0,0,0-4.819-2.9V8.459h6.635v5.819H22.66Zm0,0"/>
</svg>
